<?xml version="1.0" standalone="no"?>
<!DOCTYPE svg PUBLIC "-//W3C//DTD SVG 20010904//EN"
 "http://www.w3.org/TR/2001/REC-SVG-20010904/DTD/svg10.dtd">
<svg version="1.0" xmlns="http://www.w3.org/2000/svg"
 width="840.000000pt" height="697.000000pt" viewBox="0 0 840.000000 697.000000"
 preserveAspectRatio="xMidYMid meet">
<metadata>
Created by potrace 1.16, written by Peter Selinger 2001-2019
</metadata>
<g transform="translate(0.000000,697.000000) scale(0.100000,-0.100000)"
fill="#000000" stroke="none">
<path d="M1717 5973 l-567 -568 957 -957 958 -958 -955 -955 c-525 -526 -956
-957 -957 -958 -1 -1 253 -258 565 -570 l568 -567 957 957 957 958 957 -958
957 -957 568 567 567 568 -949 950 c-523 523 -950 955 -950 962 0 6 428 440
950 964 l951 953 -568 568 -568 568 -958 -957 -957 -958 -958 958 -957 957
-568 -567z"/>
</g>
</svg>
